<?xml version="1.0" encoding="UTF-8"?>
<svg id="Layer_1" data-name="Layer 1" xmlns="http://www.w3.org/2000/svg" viewBox="0 0 1366 768">
  <defs>
    <style>
      .cls-1 {
        fill: #000;
        stroke-width: 0px;
      }

      .cls-2 {
        fill: none;
        stroke: blue;
        stroke-miterlimit: 10;
      }
    </style>
  </defs>
  <g>
    <rect class="cls-1" x=".5" y=".5" width="1365" height="767"/>
    <path class="cls-1" d="M1365,1v766H1V1h1364M1366,0H0v768h1366V0h0Z"/>
  </g>
  <g>
    <rect class="cls-2" width="1366" height="768"/>
    <line class="cls-2" y1="731.43" x2="1366" y2="731.43"/>
    <line class="cls-2" y1="694.86" x2="1366" y2="694.86"/>
    <line class="cls-2" y1="658.29" x2="1366" y2="658.29"/>
    <line class="cls-2" y1="621.71" x2="1366" y2="621.71"/>
    <line class="cls-2" y1="585.14" x2="1366" y2="585.14"/>
    <line class="cls-2" y1="548.57" x2="1366" y2="548.57"/>
    <line class="cls-2" y1="512" x2="1366" y2="512"/>
    <line class="cls-2" y1="475.43" x2="1366" y2="475.43"/>
    <line class="cls-2" y1="438.86" x2="1366" y2="438.86"/>
    <line class="cls-2" y1="402.29" x2="1366" y2="402.29"/>
    <line class="cls-2" y1="365.71" x2="1366" y2="365.71"/>
    <line class="cls-2" y1="329.14" x2="1366" y2="329.14"/>
    <line class="cls-2" y1="292.57" x2="1366" y2="292.57"/>
    <line class="cls-2" y1="256" x2="1366" y2="256"/>
    <line class="cls-2" y1="219.43" x2="1366" y2="219.43"/>
    <line class="cls-2" y1="182.86" x2="1366" y2="182.86"/>
    <line class="cls-2" y1="146.29" x2="1366" y2="146.29"/>
    <line class="cls-2" y1="109.71" x2="1366" y2="109.71"/>
    <line class="cls-2" y1="73.14" x2="1366" y2="73.14"/>
    <line class="cls-2" y1="36.57" x2="1366" y2="36.57"/>
    <line class="cls-2" x1="1300.95" x2="1300.95" y2="768"/>
    <line class="cls-2" x1="1235.9" x2="1235.9" y2="768"/>
    <line class="cls-2" x1="1170.86" x2="1170.86" y2="768"/>
    <line class="cls-2" x1="1105.81" x2="1105.81" y2="768"/>
    <line class="cls-2" x1="1040.76" x2="1040.76" y2="768"/>
    <line class="cls-2" x1="975.71" x2="975.71" y2="768"/>
    <line class="cls-2" x1="910.67" x2="910.67" y2="768"/>
    <line class="cls-2" x1="845.62" x2="845.62" y2="768"/>
    <line class="cls-2" x1="780.57" x2="780.57" y2="768"/>
    <line class="cls-2" x1="715.52" x2="715.52" y2="768"/>
    <line class="cls-2" x1="650.48" x2="650.48" y2="768"/>
    <line class="cls-2" x1="585.43" x2="585.43" y2="768"/>
    <line class="cls-2" x1="520.38" x2="520.38" y2="768"/>
    <line class="cls-2" x1="455.33" x2="455.33" y2="768"/>
    <line class="cls-2" x1="390.29" x2="390.29" y2="768"/>
    <line class="cls-2" x1="325.24" x2="325.24" y2="768"/>
    <line class="cls-2" x1="260.19" x2="260.19" y2="768"/>
    <line class="cls-2" x1="195.14" x2="195.14" y2="768"/>
    <line class="cls-2" x1="130.1" x2="130.1" y2="768"/>
    <line class="cls-2" x1="65.05" x2="65.05" y2="768"/>
  </g>
</svg>